<?xml version="1.0" encoding="utf-8"?>
<!-- Generator: Adobe Illustrator 28.2.0, SVG Export Plug-In . SVG Version: 6.00 Build 0)  -->
<svg version="1.1" id="Layer_1" xmlns="http://www.w3.org/2000/svg" xmlns:xlink="http://www.w3.org/1999/xlink" x="0px" y="0px"
	 viewBox="0 0 1038.8 347.9" style="enable-background:new 0 0 1038.8 347.9;" xml:space="preserve">
<style type="text/css">
	.st0{fill:#0D4C65;}
</style>
<path class="st0" d="M807.1,184.7l0.6,0.1L962.4,0h-2.7L807,182.5L270.9,35.9l-0.2-0.1L0,179.2v2.3L270.7,38L807.1,184.7z
	 M805.3,216.3l0.6,0.2L978.6,0h-2.7L805.3,214L296.3,58.2l-0.2-0.1L0,202.6v2.3L296,60.3L805.3,216.3z M15.3,0L0,14.6v2.6L18.1,0
	H15.3z M0,0v0.2L0.2,0H0z M810.2,137.5L934.9,0H932L809.6,135.2L232.8,2.4l-0.2,0L0,142.5v2.4L232.7,4.6L810.2,137.5z M808.8,153.2
	l0.5,0.1L944.5,0h-2.8l-133,150.9L245.5,13.5l-0.2,0L0,155v2.4L245.3,15.7L808.8,153.2z M808.5,169.1L953.7,0h-2.8l-143,166.7
	l-549.6-142l-0.2-0.1L0,167.2v2.4L258,26.9L808.5,169.1z M806.2,200.5l0.6,0.1L970.7,0H968L806.1,198.3L283.6,47l-0.2-0.1L0,191v2.3
	L283.3,49.2L806.2,200.5z M799.2,326.8l0.7,0.3L1026.3,0h-2.6L799.3,324.4L385.3,136.3l-0.3-0.1L0,280.1v2.3l384.7-143.9
	L799.2,326.8z M817,11.1L830.4,0h-3.2l-10.7,8.9L752.8,0h-15.6l79.5,11.1L817,11.1z M800,311l0.7,0.3L1020.2,0h-2.6L800.2,308.7
	L372.6,125.1l-0.3-0.1L0,269.3v2.3l372-144.3L800,311z M802.7,263.7l0.7,0.2L1000.6,0h-2.6L802.7,261.4L334.4,91.6L0,236.6v2.2
	l334-145L802.7,263.7z M800.9,295.2l0.7,0.3L1013.9,0h-2.6L801,292.9L359.9,114l-0.3-0.1L0,258.5v2.3l359.3-144.7L800.9,295.2z
	 M803.6,247.9l0.6,0.2L993.5,0h-2.7L803.6,245.6L321.7,80.5l-0.3-0.1L0,225.3v2.3l321.3-145L803.6,247.9z M804.4,232.1l0.6,0.2
	L986.2,0h-2.7L804.4,229.8L309,69.3l-0.3-0.1L0,214v2.3L308.7,71.5L804.4,232.1z M801.8,279.4l0.7,0.2L1007.3,0h-2.6L801.9,277.1
	L347.2,102.8l-0.3-0.1L0,247.6v2.3L346.7,105L801.8,279.4z M813.6,74.3L890,0h-3l-74,72L415.3,0h-12.2l410,74.3L813.6,74.3z
	 M902.3,0h-2.9l-87.2,87.8L356.2,0h-11.5l468,90.1L902.3,0z M814.4,58.5L876.8,0h-3l-59.9,56.3L483.2,0h-12.9L814,58.5L814.4,58.5z
	 M924.7,0h-2.9L810.4,119.4L260.6,0h-10.2L811,121.7L924.7,0z M811.9,105.9L913.8,0h-2.9l-99.7,103.6L304.9,0h-10.8l517.3,105.8
	L811.9,105.9z M1029.7,0L798.5,340.2L398,147.5l-0.3-0.1L0,290.7v2.2l397.3-143.4l401,193l0.7,0.4L1032.3,0H1029.7z M34.3,0L0,30.8
	v2.6L37.2,0H34.3z M815.3,42.7L862.6,0h-3.1l-44.7,40.5L561.2,0h-13.7l267.4,42.7L815.3,42.7z M816.1,26.9l31-26.9H844l-28.4,24.7
	L650.5,0h-14.7l180,26.9L816.1,26.9z M76.2,0L0,61.4v2.5L79.3,0H76.2z M99.2,0L0,75.9v2.5L102.4,0H99.2z M54.6,0L0,46.4V49L57.6,0
	H54.6z M123.7,0L0,89.9v2.5L127,0H123.7z M177,0L0,116.9v2.4L180.5,0H177z M205.9,0L0,129.8v2.4L209.6,0H205.9z M149.6,0L0,103.6
	v2.4L153,0H149.6z"/>
</svg>
