<?xml version="1.0" encoding="utf-8"?>
<!-- Generator: Adobe Illustrator 28.2.0, SVG Export Plug-In . SVG Version: 6.00 Build 0)  -->
<svg version="1.1" id="Layer_1" xmlns="http://www.w3.org/2000/svg" xmlns:xlink="http://www.w3.org/1999/xlink" x="0px" y="0px"
	 viewBox="0 0 1920 694.9" style="enable-background:new 0 0 1920 694.9;" xml:space="preserve">
<style type="text/css">
	.st0{fill:#E9F1F4;}
</style>
<g>
	<polygon class="st0" points="1650.8,544.3 1140.9,252.7 1140.7,252.6 488.6,344.3 488.3,344.3 0,355.6 0,357.6 488.6,346.4 
		1139.9,254.6 1650.1,546.4 1650.7,546.6 1920,403.2 1920,400.8 	"/>
	<polygon class="st0" points="582,262.4 582.2,262.5 1006.5,62.3 1735.1,353.4 1735.4,353.5 1920,304.2 1920,302.1 1735.6,351.3 
		1007.1,60.3 1006.7,60.2 582.1,260.4 0,96.4 0,98.5 	"/>
	<polygon class="st0" points="1644.7,558.1 1150.5,266.5 1150.3,266.3 481.9,350.3 481.6,350.3 0,373.6 0,375.6 481.9,352.4 
		1149.5,268.3 1644.1,560.1 1644.6,560.4 1920,409.7 1920,407.3 	"/>
	<polygon class="st0" points="1102.7,197.8 1102.4,197.6 515,320.3 0,283 0,285 515.2,322.4 1101.8,199.7 1674.9,491.4 1920,376.5 
		1920,374.2 1675,489.2 	"/>
	<polygon class="st0" points="1662.9,516.8 1121.8,225.2 1121.6,225.1 501.9,332.3 501.8,332.3 0,319.4 0,321.5 501.9,334.4 
		1120.9,227.1 1662.3,518.8 1662.8,519 1920,390 1920,387.6 	"/>
	<polygon class="st0" points="1669,503 1112.2,211.5 1112,211.4 508.3,326.3 0,301.2 0,303.3 508.5,328.4 1111.3,213.4 
		1668.8,505.2 1920,383.3 1920,380.9 	"/>
	<polygon class="st0" points="1656.9,530.5 1131.4,239 1131.1,238.9 495.2,338.3 495,338.3 0,337.6 0,339.6 495.2,340.4 
		1130.4,240.9 1656.7,532.8 1920,396.6 1920,394.3 	"/>
	<polygon class="st0" points="1608.5,640.8 1207.9,349 1207.7,348.8 441.8,386.3 441.4,386.2 0,479.4 0,481.5 441.8,388.3 
		1206.6,350.7 1607.6,642.8 1608.2,643.2 1920,447.8 1920,445.3 	"/>
	<polygon class="st0" points="1614.5,627 1198.3,335.2 1198.1,335 448.5,380.3 448.1,380.2 0,462 0,464.1 448.5,382.3 1197.1,337 
		1613.7,629 1614.3,629.4 1920,441.5 1920,439.1 	"/>
	<polygon class="st0" points="1632.7,585.7 1169.6,294 1169.4,293.8 468.5,362.3 468.2,362.2 0,409.2 0,411.3 468.5,364.3 
		1168.5,295.8 1631.9,587.7 1632.5,588 1920,422.6 1920,420.2 	"/>
	<polygon class="st0" points="1216.2,364.4 1601.5,656.6 1602.2,657 1920,453.9 1920,451.4 1602.4,654.6 1217.5,362.7 1217.2,362.5 
		435.1,392.2 434.7,392.2 0,496.7 0,498.8 435.1,394.3 	"/>
	<polygon class="st0" points="1620.6,613.2 1188.8,321.5 454.8,374.2 0,444.5 0,446.6 455.2,376.3 1187.6,323.2 1619.8,615.3 
		1620.4,615.6 1920,435.3 1920,432.8 	"/>
	<polygon class="st0" points="1626.6,599.5 1179.2,307.7 1178.9,307.6 461.8,368.3 461.5,368.2 0,426.9 0,428.9 461.8,370.3 
		1178.1,309.5 1625.8,601.5 1626.4,601.8 1920,429 1920,426.5 	"/>
	<polygon class="st0" points="1638.7,571.9 1160.1,280.2 1159.8,280.1 475.2,356.3 474.9,356.3 0,391.4 0,393.5 475.2,358.4 
		1159,282.1 1638,573.9 1638.5,574.2 1920,416.2 1920,413.8 	"/>
	<polygon class="st0" points="521.9,316.4 1092.3,185.9 1680.5,477.4 1680.9,477.6 1920,369.6 1920,367.4 1681.1,475.4 1093.1,184 
		1092.9,183.9 521.8,314.3 0,264.6 0,266.6 	"/>
	<polygon class="st0" points="535.3,304.4 1073.2,158.5 1692.6,449.9 1693,450.1 1920,355.7 1920,353.5 1693.2,447.8 1074,156.5 
		1073.7,156.4 535.2,302.4 0,227.7 0,229.7 	"/>
	<polygon class="st0" points="988,32.9 987.6,32.8 595.5,248.4 0,58.4 0,60.5 595.3,250.5 595.6,250.5 987.5,34.9 1747.2,325.8 
		1747.5,325.9 1920,288.5 1920,286.4 1747.7,323.8 	"/>
	<polygon class="st0" points="528.6,310.4 1082.7,172.2 1687,463.9 1920,362.7 1920,360.5 1687.1,461.6 1083.5,170.3 1083.3,170.2 
		528.5,308.3 0,246.2 0,248.2 	"/>
	<polygon class="st0" points="1920,463.6 1590.4,682.1 1236.6,390.2 1236.4,390 421.7,404.2 421.3,404.2 0,530.9 0,533.1 
		421.8,406.3 1235.2,391.9 1589.4,684.1 1590,684.7 1920,466.2 	"/>
	<polygon class="st0" points="1225.7,378.2 1595.5,670.3 1596.1,670.9 1920,460.1 1920,457.5 1596.4,668.3 1227,376.5 1226.8,376.3 
		428.4,398.2 428,398.2 0,513.9 0,516 428.4,400.3 	"/>
	<polygon class="st0" points="0,22.3 608.7,238.5 608.8,238.5 602.2,242.4 0,39.3 0,41.5 602,244.5 602.3,244.5 977.9,21.2 
		1753.3,312 1753.5,312.1 1920,280.4 1920,278.3 1753.8,310 978.4,19.1 978,19 612.6,236.2 968.4,7.4 1759.3,298.2 1759.6,298.3 
		1920,272.2 1920,270.2 1759.8,296.2 968.8,5.4 968.4,5.3 608.9,236.4 0,20.2 	"/>
	<polygon class="st0" points="575.3,268.4 575.5,268.5 1016,76.1 1729,367.1 1729.3,367.3 1920,311.9 1920,309.7 1729.5,365.1 
		1016.6,74.1 1016.3,74 575.4,266.4 0,115.4 0,117.5 	"/>
	<polygon class="st0" points="568.9,274.4 1025.6,89.8 1722.9,380.9 1723.3,381.1 1920,319.4 1920,317.3 1723.5,378.9 1026.2,87.8 
		1025.9,87.7 568.9,272.4 0,134.2 0,136.3 	"/>
	<polygon class="st0" points="542,298.4 1063.7,144.7 1698.7,436.1 1699.1,436.3 1920,348.6 1920,346.4 1699.2,434.1 1064.4,142.8 
		1064.2,142.7 542,296.4 0,209.1 0,211.2 	"/>
	<polygon class="st0" points="588.9,256.5 997,48.6 1741.1,339.6 1741.4,339.7 1920,296.4 1920,294.3 1741.6,337.6 997.2,46.5 
		588.8,254.4 0,77.4 0,79.6 588.7,256.4 	"/>
	<polygon class="st0" points="562.2,280.4 1035.1,103.5 1716.9,394.7 1717.2,394.9 1920,326.9 1920,324.7 1717.4,392.7 
		1035.7,101.6 1035.5,101.5 562.1,278.4 0,153.1 0,155.1 	"/>
	<polygon class="st0" points="548.8,292.4 1054.2,131 1704.7,422.3 1705.1,422.5 1920,341.5 1920,339.3 1705.3,420.3 1054.9,129 
		1054.6,128.9 548.7,290.4 0,190.5 0,192.5 	"/>
	<polygon class="st0" points="555.5,286.4 1044.6,117.3 1710.8,408.5 1711.2,408.7 1920,334.2 1920,332 1711.3,406.5 1045.3,115.3 
		1045,115.2 555.4,284.4 0,171.8 0,173.9 	"/>
</g>
</svg>
