<svg xmlns="http://www.w3.org/2000/svg" width="728" height="728" viewBox="0 0 728 728">
  <g transform="translate(-76.64 -60.6)">
    <circle cx="363.5" cy="363.5" r="363.5" transform="translate(77.14 61.1)" fill="none" stroke="#00263a" stroke-miterlimit="10" stroke-width="1"/>
    <circle cx="358.425" cy="358.425" r="358.425" transform="translate(82.216 66.176)" fill="none" stroke="#00273c" stroke-miterlimit="10" stroke-width="1"/>
    <circle cx="353.35" cy="353.35" r="353.35" transform="translate(87.291 71.251)" fill="none" stroke="#00283e" stroke-miterlimit="10" stroke-width="1"/>
    <circle cx="348.274" cy="348.274" r="348.274" transform="translate(92.366 76.326)" fill="none" stroke="#002a40" stroke-miterlimit="10" stroke-width="1"/>
    <circle cx="343.199" cy="343.199" r="343.199" transform="translate(97.441 81.401)" fill="none" stroke="#002b42" stroke-miterlimit="10" stroke-width="1"/>
    <circle cx="338.124" cy="338.124" r="338.124" transform="translate(102.517 86.477)" fill="none" stroke="#002c44" stroke-miterlimit="10" stroke-width="1"/>
    <circle cx="333.049" cy="333.049" r="333.049" transform="translate(107.592 91.552)" fill="none" stroke="#002d45" stroke-miterlimit="10" stroke-width="1"/>
    <circle cx="327.973" cy="327.973" r="327.973" transform="translate(112.667 96.627)" fill="none" stroke="#002e47" stroke-miterlimit="10" stroke-width="1"/>
    <circle cx="322.898" cy="322.898" r="322.898" transform="translate(117.742 101.702)" fill="none" stroke="#002f49" stroke-miterlimit="10" stroke-width="1"/>
    <circle cx="317.823" cy="317.823" r="317.823" transform="translate(122.818 106.777)" fill="none" stroke="#00314b" stroke-miterlimit="10" stroke-width="1"/>
    <circle cx="312.748" cy="312.748" r="312.748" transform="translate(127.893 111.853)" fill="none" stroke="#00324d" stroke-miterlimit="10" stroke-width="1"/>
    <circle cx="307.673" cy="307.673" r="307.673" transform="translate(132.968 116.928)" fill="none" stroke="#00334f" stroke-miterlimit="10" stroke-width="1"/>
    <circle cx="302.597" cy="302.597" r="302.597" transform="translate(138.043 122.003)" fill="none" stroke="#003451" stroke-miterlimit="10" stroke-width="1"/>
    <circle cx="297.522" cy="297.522" r="297.522" transform="translate(143.118 127.078)" fill="none" stroke="#003553" stroke-miterlimit="10" stroke-width="1"/>
    <circle cx="292.447" cy="292.447" r="292.447" transform="translate(148.194 132.154)" fill="none" stroke="#003755" stroke-miterlimit="10" stroke-width="1"/>
    <circle cx="287.372" cy="287.372" r="287.372" transform="translate(153.269 137.229)" fill="none" stroke="#003857" stroke-miterlimit="10" stroke-width="1"/>
    <circle cx="282.296" cy="282.296" r="282.296" transform="translate(158.344 142.304)" fill="none" stroke="#003958" stroke-miterlimit="10" stroke-width="1"/>
    <circle cx="277.221" cy="277.221" r="277.221" transform="translate(163.419 147.379)" fill="none" stroke="#003a5a" stroke-miterlimit="10" stroke-width="1"/>
    <circle cx="272.146" cy="272.146" r="272.146" transform="translate(168.495 152.455)" fill="none" stroke="#003b5c" stroke-miterlimit="10" stroke-width="1"/>
    <circle cx="267.071" cy="267.071" r="267.071" transform="translate(173.57 157.53)" fill="none" stroke="#003c5e" stroke-miterlimit="10" stroke-width="1"/>
    <circle cx="261.995" cy="261.995" r="261.995" transform="translate(178.645 162.605)" fill="none" stroke="#003e60" stroke-miterlimit="10" stroke-width="1"/>
    <circle cx="256.92" cy="256.92" r="256.92" transform="translate(183.72 167.68)" fill="none" stroke="#003f62" stroke-miterlimit="10" stroke-width="1"/>
    <circle cx="251.845" cy="251.845" r="251.845" transform="translate(188.795 172.755)" fill="none" stroke="#004064" stroke-miterlimit="10" stroke-width="1"/>
    <circle cx="246.77" cy="246.77" r="246.77" transform="translate(193.871 177.831)" fill="none" stroke="#004166" stroke-miterlimit="10" stroke-width="1"/>
    <circle cx="241.695" cy="241.695" r="241.695" transform="translate(198.946 182.906)" fill="none" stroke="#004268" stroke-miterlimit="10" stroke-width="1"/>
    <circle cx="236.619" cy="236.619" r="236.619" transform="translate(204.021 187.981)" fill="none" stroke="#00446a" stroke-miterlimit="10" stroke-width="1"/>
    <circle cx="231.544" cy="231.544" r="231.544" transform="translate(209.096 193.056)" fill="none" stroke="#00456b" stroke-miterlimit="10" stroke-width="1"/>
    <circle cx="226.469" cy="226.469" r="226.469" transform="translate(214.172 198.132)" fill="none" stroke="#00466d" stroke-miterlimit="10" stroke-width="1"/>
    <circle cx="221.394" cy="221.394" r="221.394" transform="translate(219.247 203.207)" fill="none" stroke="#00476f" stroke-miterlimit="10" stroke-width="1"/>
    <circle cx="216.318" cy="216.318" r="216.318" transform="translate(224.322 208.282)" fill="none" stroke="#004871" stroke-miterlimit="10" stroke-width="1"/>
    <circle cx="211.243" cy="211.243" r="211.243" transform="translate(229.397 213.357)" fill="none" stroke="#004973" stroke-miterlimit="10" stroke-width="1"/>
    <circle cx="206.168" cy="206.168" r="206.168" transform="translate(234.473 218.432)" fill="none" stroke="#004b75" stroke-miterlimit="10" stroke-width="1"/>
    <circle cx="201.093" cy="201.093" r="201.093" transform="translate(239.548 223.508)" fill="none" stroke="#004c77" stroke-miterlimit="10" stroke-width="1"/>
    <circle cx="196.018" cy="196.018" r="196.018" transform="translate(244.623 228.583)" fill="none" stroke="#004d79" stroke-miterlimit="10" stroke-width="1"/>
    <circle cx="190.942" cy="190.942" r="190.942" transform="translate(249.698 233.658)" fill="none" stroke="#004e7b" stroke-miterlimit="10" stroke-width="1"/>
    <circle cx="185.867" cy="185.867" r="185.867" transform="translate(254.773 238.733)" fill="none" stroke="#004f7d" stroke-miterlimit="10" stroke-width="1"/>
    <circle cx="180.792" cy="180.792" r="180.792" transform="translate(259.849 243.809)" fill="none" stroke="#00517e" stroke-miterlimit="10" stroke-width="1"/>
    <circle cx="175.717" cy="175.717" r="175.717" transform="translate(264.924 248.884)" fill="none" stroke="#005280" stroke-miterlimit="10" stroke-width="1"/>
    <circle cx="170.641" cy="170.641" r="170.641" transform="translate(269.999 253.959)" fill="none" stroke="#005382" stroke-miterlimit="10" stroke-width="1"/>
    <circle cx="165.566" cy="165.566" r="165.566" transform="translate(275.074 259.034)" fill="none" stroke="#005484" stroke-miterlimit="10" stroke-width="1"/>
    <circle cx="160.491" cy="160.491" r="160.491" transform="translate(280.15 264.11)" fill="none" stroke="#005586" stroke-miterlimit="10" stroke-width="1"/>
    <circle cx="155.416" cy="155.416" r="155.416" transform="translate(285.225 269.185)" fill="none" stroke="#005788" stroke-miterlimit="10" stroke-width="1"/>
    <circle cx="150.34" cy="150.34" r="150.34" transform="translate(290.3 274.26)" fill="none" stroke="#00588a" stroke-miterlimit="10" stroke-width="1"/>
    <circle cx="145.265" cy="145.265" r="145.265" transform="translate(295.375 279.335)" fill="none" stroke="#00598c" stroke-miterlimit="10" stroke-width="1"/>
    <circle cx="140.19" cy="140.19" r="140.19" transform="translate(300.45 284.41)" fill="none" stroke="#005a8e" stroke-miterlimit="10" stroke-width="1"/>
    <circle cx="135.115" cy="135.115" r="135.115" transform="translate(305.526 289.486)" fill="none" stroke="#005b90" stroke-miterlimit="10" stroke-width="1"/>
    <circle cx="130.04" cy="130.04" r="130.04" transform="translate(310.601 294.561)" fill="none" stroke="#005c91" stroke-miterlimit="10" stroke-width="1"/>
    <circle cx="124.964" cy="124.964" r="124.964" transform="translate(315.676 299.636)" fill="none" stroke="#005e93" stroke-miterlimit="10" stroke-width="1"/>
    <circle cx="119.889" cy="119.889" r="119.889" transform="translate(320.751 304.711)" fill="none" stroke="#005f95" stroke-miterlimit="10" stroke-width="1"/>
    <circle cx="114.814" cy="114.814" r="114.814" transform="translate(325.827 309.787)" fill="none" stroke="#006097" stroke-miterlimit="10" stroke-width="1"/>
    <circle cx="109.739" cy="109.739" r="109.739" transform="translate(330.902 314.862)" fill="none" stroke="#006199" stroke-miterlimit="10" stroke-width="1"/>
    <circle cx="104.663" cy="104.663" r="104.663" transform="translate(335.977 319.937)" fill="none" stroke="#00629b" stroke-miterlimit="10" stroke-width="1"/>
    <circle cx="99.588" cy="99.588" r="99.588" transform="translate(341.052 325.012)" fill="none" stroke="#00649d" stroke-miterlimit="10" stroke-width="1"/>
    <circle cx="94.513" cy="94.513" r="94.513" transform="translate(346.127 330.087)" fill="none" stroke="#00659f" stroke-miterlimit="10" stroke-width="1"/>
    <circle cx="89.438" cy="89.438" r="89.438" transform="translate(351.203 335.163)" fill="none" stroke="#0066a1" stroke-miterlimit="10" stroke-width="1"/>
    <circle cx="84.363" cy="84.363" r="84.363" transform="translate(356.278 340.238)" fill="none" stroke="#0067a3" stroke-miterlimit="10" stroke-width="1"/>
    <circle cx="79.287" cy="79.287" r="79.287" transform="translate(361.353 345.313)" fill="none" stroke="#0068a4" stroke-miterlimit="10" stroke-width="1"/>
    <circle cx="74.212" cy="74.212" r="74.212" transform="translate(366.428 350.388)" fill="none" stroke="#0069a6" stroke-miterlimit="10" stroke-width="1"/>
    <circle cx="69.137" cy="69.137" r="69.137" transform="translate(371.504 355.464)" fill="none" stroke="#006ba8" stroke-miterlimit="10" stroke-width="1"/>
    <circle cx="64.062" cy="64.062" r="64.062" transform="translate(376.579 360.539)" fill="none" stroke="#006caa" stroke-miterlimit="10" stroke-width="1"/>
    <circle cx="58.986" cy="58.986" r="58.986" transform="translate(381.654 365.614)" fill="none" stroke="#006dac" stroke-miterlimit="10" stroke-width="1"/>
    <circle cx="53.911" cy="53.911" r="53.911" transform="translate(386.729 370.689)" fill="none" stroke="#006eae" stroke-miterlimit="10" stroke-width="1"/>
    <circle cx="48.836" cy="48.836" r="48.836" transform="translate(391.805 375.765)" fill="none" stroke="#006fb0" stroke-miterlimit="10" stroke-width="1"/>
    <circle cx="43.761" cy="43.761" r="43.761" transform="translate(396.88 380.84)" fill="none" stroke="#0071b2" stroke-miterlimit="10" stroke-width="1"/>
    <circle cx="38.685" cy="38.685" r="38.685" transform="translate(401.955 385.915)" fill="none" stroke="#0072b4" stroke-miterlimit="10" stroke-width="1"/>
    <circle cx="33.61" cy="33.61" r="33.61" transform="translate(407.03 390.99)" fill="none" stroke="#0073b6" stroke-miterlimit="10" stroke-width="1"/>
    <circle cx="28.535" cy="28.535" r="28.535" transform="translate(412.105 396.065)" fill="none" stroke="#0074b7" stroke-miterlimit="10" stroke-width="1"/>
    <circle cx="23.46" cy="23.46" r="23.46" transform="translate(417.181 401.141)" fill="none" stroke="#0075b9" stroke-miterlimit="10" stroke-width="1"/>
    <circle cx="18.385" cy="18.385" r="18.385" transform="translate(422.256 406.216)" fill="none" stroke="#0076bb" stroke-miterlimit="10" stroke-width="1"/>
    <circle cx="13.309" cy="13.309" r="13.309" transform="translate(427.331 411.291)" fill="none" stroke="#0078bd" stroke-miterlimit="10" stroke-width="1"/>
    <circle cx="8.234" cy="8.234" r="8.234" transform="translate(432.406 416.366)" fill="none" stroke="#0079bf" stroke-miterlimit="10" stroke-width="1"/>
    <circle cx="3.159" cy="3.159" r="3.159" transform="translate(437.482 421.442)" fill="none" stroke="#007ac1" stroke-miterlimit="10" stroke-width="1"/>
  </g>
</svg>
