<svg xmlns="http://www.w3.org/2000/svg" width="2093.609" height="293.781" viewBox="0 0 2093.609 293.781"><g transform="translate(134 -3818.968)"><g transform="translate(-134 3819)"><path d="M1887.617,273.806,1881.41,264a1.488,1.488,0,0,1-.044-1.51,1.471,1.471,0,0,1,1.3-.767h3.25L1878,249.229a1.491,1.491,0,0,1,1.26-2.284h3.88l-8.016-12.662-8.022,12.662h3.887a1.494,1.494,0,0,1,1.3.774,1.472,1.472,0,0,1-.05,1.51l-7.909,12.494h3.244a1.488,1.488,0,0,1,1.3.767,1.472,1.472,0,0,1-.05,1.51l-4.734,7.479-2.508-1.584,3.288-5.2h-3.244a1.479,1.479,0,0,1-1.254-2.276l7.909-12.5H1864.4a1.491,1.491,0,0,1-1.253-2.283l10.723-16.923a1.475,1.475,0,0,1,1.253-.693,1.49,1.49,0,0,1,1.254.693l10.717,16.923a1.474,1.474,0,0,1,.05,1.51,1.493,1.493,0,0,1-1.3.773h-3.886l7.916,12.5a1.485,1.485,0,0,1-1.26,2.276h-3.244l4.759,7.523Z" fill="#fff"/><path d="M1893.83,274.18l-2.508-1.591,9.476-14.952h-3.244a1.48,1.48,0,0,1-1.254-2.277l7.91-12.5h-3.886a1.471,1.471,0,0,1-1.3-.767,1.488,1.488,0,0,1,.044-1.51l10.716-16.929a1.5,1.5,0,0,1,2.514,0l10.717,16.929a1.488,1.488,0,0,1,.044,1.51,1.471,1.471,0,0,1-1.3.767h-3.886l7.909,12.5a1.479,1.479,0,0,1-1.249,2.277h-3.244l5.134,8.1-2.508,1.591-6.581-10.386a1.48,1.48,0,0,1,1.254-2.277h3.244l-7.91-12.495a1.5,1.5,0,0,1-.044-1.515,1.47,1.47,0,0,1,1.3-.768h3.886l-8.022-12.663-8.015,12.663h3.886a1.469,1.469,0,0,1,1.3.768,1.5,1.5,0,0,1-.043,1.515l-7.91,12.495h3.243a1.488,1.488,0,0,1,1.3.767,1.472,1.472,0,0,1-.05,1.51Z" fill="#fff"/><path d="M1935.835,264.886l-2.514-1.584,6.531-10.337H1936.6a1.491,1.491,0,0,1-1.261-2.283l7.916-12.494h-3.886a1.483,1.483,0,0,1-1.254-2.283l10.717-16.923a1.481,1.481,0,0,1,2.508,0l10.722,16.923a1.488,1.488,0,0,1-1.26,2.283h-3.88l7.91,12.494a1.491,1.491,0,0,1-1.254,2.283h-3.243l3,4.722-2.514,1.591-4.447-7.005a1.491,1.491,0,0,1,1.26-2.283h3.243l-7.909-12.5a1.479,1.479,0,0,1,1.253-2.276h3.887l-8.022-12.663-8.016,12.663h3.88a1.484,1.484,0,0,1,1.26,2.276l-7.916,12.5h3.25a1.485,1.485,0,0,1,1.254,2.277Z" fill="#fff"/><path d="M1981.435,256.564l-2.508-1.584,6.232-9.856h-3.25a1.486,1.486,0,0,1-1.254-2.283l7.91-12.5h-3.886a1.484,1.484,0,0,1-1.254-2.276l10.723-16.93a1.475,1.475,0,0,1,1.254-.693,1.49,1.49,0,0,1,1.253.693l10.717,16.93a1.472,1.472,0,0,1,.05,1.509,1.488,1.488,0,0,1-1.3.767h-3.886l7.916,12.5a1.491,1.491,0,0,1-1.26,2.283h-3.244l4.342,6.855-2.514,1.591-5.783-9.139a1.486,1.486,0,0,1,1.254-2.283h3.25l-7.916-12.494a1.485,1.485,0,0,1,1.254-2.277h3.886l-8.015-12.663-8.022,12.663h3.886a1.48,1.48,0,0,1,1.254,2.277l-7.91,12.494h3.244a1.492,1.492,0,0,1,1.26,2.283Z" fill="#fff"/><path d="M2023.977,252.6l-2.514-1.585,4.385-6.93h-3.25a1.484,1.484,0,0,1-1.253-2.276l7.915-12.5h-3.886a1.494,1.494,0,0,1-1.3-.773,1.472,1.472,0,0,1,.049-1.51l10.717-16.924a1.482,1.482,0,0,1,2.508,0l10.723,16.924a1.491,1.491,0,0,1-1.26,2.283h-3.887l7.916,12.495a1.484,1.484,0,0,1-1.254,2.276h-3.262l3.7,5.9-2.514,1.578-5.127-8.165a1.485,1.485,0,0,1,1.26-2.277h3.244l-7.91-12.5a1.473,1.473,0,0,1-.05-1.509,1.494,1.494,0,0,1,1.3-.774h3.886l-8.022-12.662-8.022,12.662h3.886a1.494,1.494,0,0,1,1.3.774,1.473,1.473,0,0,1-.05,1.509l-7.91,12.5h3.25a1.485,1.485,0,0,1,1.254,2.277Z" fill="#fff"/><path d="M63.35,248.917a1.484,1.484,0,0,1-1.188-.6c-1.621-2.158-5.569-3.724-6.954-4.142a1.486,1.486,0,1,1,.861-2.844,21.741,21.741,0,0,1,7.281,3.917,21.75,21.75,0,0,1,7.28-3.917,1.486,1.486,0,1,1,.861,2.844c-1.385.418-5.334,1.984-6.953,4.142a1.488,1.488,0,0,1-1.188.6" fill="#fff"/><path d="M85.673,229.567a1.491,1.491,0,0,1-1.188-.6c-1.619-2.158-5.569-3.724-6.954-4.142a1.486,1.486,0,1,1,.862-2.844,21.75,21.75,0,0,1,7.28,3.917,21.741,21.741,0,0,1,7.281-3.917,1.486,1.486,0,1,1,.861,2.844c-1.385.418-5.333,1.984-6.954,4.142a1.487,1.487,0,0,1-1.188.6" fill="#fff"/><path d="M114.574,258.9a1.481,1.481,0,0,1-1.188-.592c-1.619-2.159-5.567-3.724-6.954-4.149a1.486,1.486,0,1,1,.862-2.844,21.835,21.835,0,0,1,7.28,3.923,21.835,21.835,0,0,1,7.28-3.923,1.486,1.486,0,1,1,.862,2.844c-1.386.425-5.335,1.99-6.954,4.149a1.481,1.481,0,0,1-1.188.592" fill="#fff"/><path d="M600.249,162.273h0a1.484,1.484,0,0,1-1.188-.592c-1.619-2.159-5.569-3.725-6.954-4.149a1.486,1.486,0,1,1,.861-2.844,21.721,21.721,0,0,1,7.281,3.917,21.72,21.72,0,0,1,7.281-3.917,1.485,1.485,0,0,1,.859,2.844c-1.386.424-5.333,1.99-6.952,4.149a1.486,1.486,0,0,1-1.188.592" transform="translate(-325.733 -59.871)" fill="#fff"/><path d="M622.572,142.923h0a1.48,1.48,0,0,1-1.188-.592c-1.621-2.159-5.569-3.731-6.954-4.149a1.486,1.486,0,1,1,.861-2.844,21.759,21.759,0,0,1,7.281,3.917,21.7,21.7,0,0,1,7.28-3.917,1.486,1.486,0,0,1,.86,2.844c-1.385.418-5.333,1.99-6.952,4.149a1.484,1.484,0,0,1-1.188.592" transform="translate(-325.733 -59.871)" fill="#fff"/><path d="M651.472,172.26a1.49,1.49,0,0,1-1.188-.6c-1.619-2.158-5.568-3.724-6.952-4.142a1.486,1.486,0,0,1,.86-2.844,21.729,21.729,0,0,1,7.28,3.917,21.721,21.721,0,0,1,7.281-3.917,1.486,1.486,0,1,1,.861,2.844c-1.385.418-5.335,1.984-6.954,4.142a1.488,1.488,0,0,1-1.188.6" transform="translate(-325.733 -59.871)" fill="#fff"/><path d="M1989.594,190.674a1.491,1.491,0,0,1-1.192-.593c-.948-1.272-3.4-2.233-4.179-2.47a1.486,1.486,0,1,1,.861-2.844,5.544,5.544,0,0,0,9.02,0,1.486,1.486,0,0,1,.861,2.844c-.842.256-3.231,1.2-4.186,2.47a1.477,1.477,0,0,1-1.185.593" fill="#fff"/><path d="M1973.344,172.384a1.467,1.467,0,0,1-1.185-.592c-.955-1.267-3.344-2.209-4.186-2.464a1.486,1.486,0,1,1,.861-2.845,5.552,5.552,0,0,0,9.02,0,1.486,1.486,0,1,1,.861,2.845c-.843.255-3.231,1.2-4.186,2.464a1.468,1.468,0,0,1-1.185.592" fill="#fff"/><path d="M1954.824,186.894a1.482,1.482,0,0,1-1.185-.593c-.955-1.266-3.343-2.214-4.186-2.47a1.486,1.486,0,1,1,.861-2.844,5.543,5.543,0,0,0,9.019,0,1.486,1.486,0,1,1,.862,2.844c-.842.256-3.231,1.2-4.186,2.47a1.484,1.484,0,0,1-1.185.593" fill="#fff"/><path d="M2092.126,293.748H1.484a1.484,1.484,0,1,1,0-2.969H2092.126a1.484,1.484,0,0,1,0,2.969" fill="#fff"/><path d="M134.163,165.379H120.842a1.489,1.489,0,0,1-1.486-1.491,7.36,7.36,0,0,0-7.35-7.348,7.57,7.57,0,0,0-1.867.249,1.478,1.478,0,0,1-1.319-.287,1.5,1.5,0,0,1-.54-1.241c.016-.237.025-.474.025-.711a11.239,11.239,0,0,0-16.745-9.806,1.486,1.486,0,0,1-2.215-1.248,13.347,13.347,0,1,0-25.789,5.222A1.482,1.482,0,0,1,62,150.726a10.565,10.565,0,0,0-1.232-.075,10.3,10.3,0,0,0-10.294,10.293,1.489,1.489,0,0,1-1.486,1.491H38.245a1.488,1.488,0,0,1,0-2.976h9.336A13.284,13.284,0,0,1,60.133,147.7a16.321,16.321,0,1,1,31.974-6.469,14.215,14.215,0,0,1,19.14,12.376c.254-.025.508-.031.759-.031A10.332,10.332,0,0,1,122.22,162.4h11.943a1.488,1.488,0,1,1,0,2.976" fill="#fff"/><path d="M93.984,168.872H28.341a1.484,1.484,0,0,1,0-2.969H93.984a1.484,1.484,0,0,1,0,2.969" fill="#fff"/><path d="M2031.007,140.1h-13.324a1.488,1.488,0,0,1-1.485-1.484,7.363,7.363,0,0,0-7.348-7.355,7.57,7.57,0,0,0-1.871.25,1.478,1.478,0,0,1-1.853-1.529c.012-.237.025-.467.025-.711a11.252,11.252,0,0,0-16.749-9.806,1.485,1.485,0,0,1-2.214-1.247,13.346,13.346,0,1,0-25.788,5.221,1.484,1.484,0,0,1-1.565,2.009,10.275,10.275,0,0,0-11.522,10.223,1.49,1.49,0,0,1-1.491,1.485h-10.735a1.488,1.488,0,1,1,0-2.976h9.338a13.291,13.291,0,0,1,12.551-11.764,16.017,16.017,0,0,1-.45-3.787,16.323,16.323,0,0,1,32.425-2.682,14.213,14.213,0,0,1,19.138,12.376c.256-.025.505-.031.761-.031a10.333,10.333,0,0,1,10.211,8.833h11.946a1.488,1.488,0,0,1,0,2.975" fill="#fff"/><path d="M1990.829,143.6h-65.647a1.488,1.488,0,1,1,0-2.976h65.647a1.488,1.488,0,0,1,0,2.976" fill="#fff"/><path d="M239.242,51.569a17.684,17.684,0,1,1,17.683-17.684,17.684,17.684,0,0,1-17.683,17.684m0-32.4a14.715,14.715,0,1,0,14.712,14.714,14.716,14.716,0,0,0-14.712-14.714" fill="#fff"/><path d="M239.242,10.923a1.486,1.486,0,0,1-1.485-1.484V1.491a1.485,1.485,0,1,1,2.969,0V9.439a1.485,1.485,0,0,1-1.484,1.484" fill="#fff"/><path d="M230.88,12.4a1.488,1.488,0,0,1-1.4-.973l-2.718-7.473a1.485,1.485,0,0,1,2.791-1.017l2.72,7.473a1.486,1.486,0,0,1-.889,1.9,1.439,1.439,0,0,1-.508.088" fill="#fff"/><path d="M223.529,16.643a1.488,1.488,0,0,1-1.14-.53l-5.11-6.089a1.487,1.487,0,1,1,2.275-1.915l5.111,6.1a1.484,1.484,0,0,1-.183,2.09,1.463,1.463,0,0,1-.953.349" fill="#fff"/><path d="M218.069,23.149a1.518,1.518,0,0,1-.741-.2l-6.885-3.979a1.484,1.484,0,1,1,1.486-2.57l6.884,3.973a1.489,1.489,0,0,1-.744,2.776" fill="#fff"/><path d="M215.168,31.127a1.8,1.8,0,0,1-.261-.025l-7.828-1.378A1.486,1.486,0,0,1,207.6,26.8l7.829,1.379a1.486,1.486,0,0,1-.256,2.95" fill="#fff"/><path d="M207.335,41a1.487,1.487,0,0,1-.255-2.951l7.828-1.378a1.485,1.485,0,1,1,.516,2.925L207.6,40.971a1.215,1.215,0,0,1-.261.025" fill="#fff"/><path d="M211.187,51.569a1.487,1.487,0,0,1-.744-2.776l6.885-3.973a1.487,1.487,0,1,1,1.485,2.576l-6.884,3.973a1.45,1.45,0,0,1-.742.2" fill="#fff"/><path d="M218.417,60.183a1.482,1.482,0,0,1-1.138-2.439l5.11-6.088a1.485,1.485,0,1,1,2.276,1.908l-5.111,6.088a1.461,1.461,0,0,1-1.137.531" fill="#fff"/><path d="M228.161,65.81a1.452,1.452,0,0,1-.508-.087,1.487,1.487,0,0,1-.888-1.9l2.719-7.473a1.486,1.486,0,1,1,2.793,1.017l-2.72,7.473a1.488,1.488,0,0,1-1.4.973" fill="#fff"/><path d="M239.242,67.769a1.488,1.488,0,0,1-1.485-1.491V58.331a1.484,1.484,0,1,1,2.969,0v7.947a1.488,1.488,0,0,1-1.484,1.491" fill="#fff"/><path d="M250.322,65.81a1.488,1.488,0,0,1-1.4-.973l-2.72-7.473a1.489,1.489,0,1,1,2.8-1.017l2.72,7.473a1.487,1.487,0,0,1-.888,1.9,1.459,1.459,0,0,1-.508.087" fill="#fff"/><path d="M260.067,60.183a1.468,1.468,0,0,1-1.14-.531l-5.109-6.088a1.485,1.485,0,0,1,2.275-1.908l5.111,6.088a1.482,1.482,0,0,1-1.137,2.439" fill="#fff"/><path d="M267.3,51.569a1.454,1.454,0,0,1-.743-.2L259.671,47.4a1.487,1.487,0,1,1,1.485-2.576l6.885,3.973a1.487,1.487,0,0,1-.744,2.776" fill="#fff"/><path d="M271.147,41a1.212,1.212,0,0,1-.26-.025L263.058,39.6a1.485,1.485,0,0,1,.518-2.925l7.828,1.378A1.487,1.487,0,0,1,271.147,41" fill="#fff"/><path d="M263.315,31.127a1.486,1.486,0,0,1-.257-2.95l7.828-1.379a1.486,1.486,0,1,1,.518,2.926L263.575,31.1a1.772,1.772,0,0,1-.26.025" fill="#fff"/><path d="M260.415,23.149a1.489,1.489,0,0,1-.744-2.776l6.883-3.973a1.485,1.485,0,1,1,1.487,2.57l-6.885,3.979a1.524,1.524,0,0,1-.741.2" fill="#fff"/><path d="M254.955,16.643a1.46,1.46,0,0,1-.954-.349,1.48,1.48,0,0,1-.183-2.09l5.109-6.1a1.488,1.488,0,0,1,2.277,1.915l-5.111,6.089a1.483,1.483,0,0,1-1.138.53" fill="#fff"/><path d="M247.6,12.4a1.426,1.426,0,0,1-.507-.088,1.484,1.484,0,0,1-.889-1.9l2.72-7.473a1.485,1.485,0,0,1,2.791,1.017L249,11.422a1.488,1.488,0,0,1-1.4.973" fill="#fff"/><path d="M448.28,242.841a7.782,7.782,0,0,1-7.773-7.773v-6.693a1.487,1.487,0,0,1,1.485-1.485h12.574a1.487,1.487,0,0,1,1.485,1.485v6.693a7.781,7.781,0,0,1-7.771,7.773m-4.8-12.975v5.2a4.8,4.8,0,1,0,9.6,0v-5.2Z" fill="#fff"/><path d="M444.7,229.866a1.488,1.488,0,0,1-1.484-1.491v-5.683a1.485,1.485,0,1,1,2.97,0v5.683a1.489,1.489,0,0,1-1.486,1.491" fill="#fff"/><path d="M451.855,229.866a1.489,1.489,0,0,1-1.486-1.491v-5.683a1.486,1.486,0,0,1,2.971,0v5.683a1.488,1.488,0,0,1-1.485,1.491" fill="#fff"/><path d="M457.334,229.866H439.226a1.488,1.488,0,1,1,0-2.976h18.108a1.488,1.488,0,1,1,0,2.976" fill="#fff"/><path d="M424.682,276.52a1.483,1.483,0,0,1-1.41-1.017l-3.028-9.144a1.481,1.481,0,0,1,1.731-1.916l3.047.674-2-6.319a1.487,1.487,0,0,1,2.834-.9l2.779,8.777a1.471,1.471,0,0,1-.32,1.447,1.491,1.491,0,0,1-1.418.449l-3.006-.668,2.2,6.663a1.486,1.486,0,0,1-.942,1.877,1.535,1.535,0,0,1-.468.075" fill="#fff"/><path d="M437.315,292.264h-2.971V250.738H414.525v31.39h-2.971V249.254a1.482,1.482,0,0,1,1.485-1.485h22.79a1.483,1.483,0,0,1,1.486,1.485Z" fill="#fff"/><path d="M443.411,278.129h-7.582V275.16h7.582a3.39,3.39,0,0,0,3.382-3.387V241.357h2.971v30.416a6.362,6.362,0,0,1-6.353,6.356" fill="#fff"/><rect width="2.97" height="175.91" transform="matrix(1, -0.011, 0.011, 1, 1700.58, 116.378)" fill="#fff"/><rect width="185.18" height="2.972" transform="translate(1690.955 292.246) rotate(-89.402)" fill="#fff"/><path d="M1698.209,109.518a9.482,9.482,0,0,1-9.344-7.853,9.387,9.387,0,0,1,.187-4.079c.025-.094.05-.181.075-.275a9.421,9.421,0,0,1,1.815-3.362,9.574,9.574,0,0,1,5-3.113,9.458,9.458,0,0,1,4.1-.094c.206.038.418.088.624.144a9.508,9.508,0,0,1,3.318,1.635,9.65,9.65,0,0,1,2.633,3.149,9.415,9.415,0,0,1,1.017,5.4,10.2,10.2,0,0,1-.269,1.429,9.7,9.7,0,0,1-1.048,2.457,9.5,9.5,0,0,1-3.25,3.225c-.131.075-.255.15-.392.225a9.37,9.37,0,0,1-3.5,1.067,8.347,8.347,0,0,1-.961.049m-.012-15.987a6.464,6.464,0,0,0-1.547.187,6.6,6.6,0,0,0-3.431,2.14,6.469,6.469,0,0,0-1.247,2.307,1.832,1.832,0,0,0-.051.194,6.412,6.412,0,0,0-.13,2.8,6.641,6.641,0,0,0,1.073,2.607,6.5,6.5,0,0,0,2.276,2.021,6.616,6.616,0,0,0,1.379.543,6.482,6.482,0,0,0,2.345.193,6.587,6.587,0,0,0,2.408-.736c.087-.05.175-.1.268-.156a6.538,6.538,0,0,0,2.234-2.214,6.856,6.856,0,0,0,.717-1.684,5.968,5.968,0,0,0,.181-.986,6.481,6.481,0,0,0-.693-3.706,6.636,6.636,0,0,0-1.809-2.158,6.564,6.564,0,0,0-2.283-1.123c-.143-.037-.28-.068-.424-.1a6.576,6.576,0,0,0-1.266-.125" fill="#fff"/><path d="M1706.431,97.311,1704.16,95.4l39.555-47.14-2.133-1.79-35.264,33.647-.486,6.718a1.466,1.466,0,0,1-.349.848l-4.6,5.478-2.271-1.915,4.285-5.1.5-6.818a1.474,1.474,0,0,1,.456-.967L1740.49,43.4a1.482,1.482,0,0,1,1.984-.062l4.291,3.593a1.489,1.489,0,0,1,.181,2.1Z" fill="#fff"/><path d="M1679.128,105.264a1.375,1.375,0,0,1-.418-.061l-48.593-14.254a1.48,1.48,0,0,1-1.048-1.678l.973-5.514a1.485,1.485,0,0,1,.611-.961,1.45,1.45,0,0,1,1.117-.243l60.576,10.891-.53,2.919-59.1-10.623-.487,2.733,46.766,13.717,6.069-2.932a1.512,1.512,0,0,1,.9-.131l4.622.817-.518,2.926-4.148-.731-6.151,2.976a1.442,1.442,0,0,1-.642.149" fill="#fff"/><path d="M1719.78,166.514a1.483,1.483,0,0,1-1.4-.973L1697.62,108.5l2.788-1.017,20.255,55.642,2.614-.954-11.5-47.359-5.577-3.786a1.45,1.45,0,0,1-.561-.73l-2-5.62,2.8-.992,1.828,5.159,5.652,3.836a1.482,1.482,0,0,1,.611.873l11.952,49.211a1.489,1.489,0,0,1-.936,1.747l-5.265,1.915a1.443,1.443,0,0,1-.5.087" fill="#fff"/><rect width="2.969" height="124.479" transform="translate(1844.014 167.818) rotate(-0.85)" fill="#fff"/><rect width="124.479" height="2.969" transform="matrix(0.014, -1, 1, 0.014, 1835.452, 292.24)" fill="#fff"/><path d="M1842.137,170.126a8.814,8.814,0,0,1-2.246-.293,9.016,9.016,0,0,1-1.828-.724c-.093-.049-.181-.1-.274-.149a8.621,8.621,0,0,1-4-9.706,2.315,2.315,0,0,1,.068-.256,8.593,8.593,0,0,1,2.857-4.242,8.755,8.755,0,0,1,3.35-1.653,8.566,8.566,0,0,1,3.936-.044c.118.026.237.057.355.088a8.618,8.618,0,0,1,6.357,9.276,7.674,7.674,0,0,1-.244,1.3,8.507,8.507,0,0,1-1.191,2.62,8.751,8.751,0,0,1-2.72,2.564c-.125.069-.237.137-.355.2a8.618,8.618,0,0,1-4.067,1.022m-.013-14.3a5.665,5.665,0,0,0-5.42,4.036c-.019.056-.032.112-.051.168a5.7,5.7,0,0,0,2.627,6.363c.062.031.118.069.18.1a5.914,5.914,0,0,0,1.2.474,5.706,5.706,0,0,0,4.135-.48c.075-.038.156-.088.237-.131a5.755,5.755,0,0,0,1.784-1.685,5.766,5.766,0,0,0,.942-2.57,5.544,5.544,0,0,0-.268-2.433,5.677,5.677,0,0,0-3.9-3.649c-.075-.018-.156-.043-.243-.056a5.446,5.446,0,0,0-1.229-.137" fill="#fff"/><path d="M1836.186,156.172l-1.03-5.82-4.348-4.229a1.47,1.47,0,0,1-.449-.967l-2.889-45.219a1.494,1.494,0,0,1,1.229-1.559l4.928-.867a1.479,1.479,0,0,1,1.722,1.2l9.793,55.536-2.924.511-9.532-54.07-2.165.381,2.764,43.322,4.284,4.16a1.479,1.479,0,0,1,.431.805l1.11,6.3Z" fill="#fff"/><path d="M1796,203.312a1.509,1.509,0,0,1-1.141-.53l-3.219-3.843a1.483,1.483,0,0,1,.187-2.1l42.305-35.256,1.9,2.283-41.158,34.3,1.4,1.678,36.136-24.053,1.46-5.789a1.489,1.489,0,0,1,.486-.773l3.219-2.7,1.909,2.276-2.851,2.389-1.485,5.883a1.46,1.46,0,0,1-.617.873l-37.715,25.108a1.48,1.48,0,0,1-.823.249" fill="#fff"/><path d="M1899.082,185.565a1.443,1.443,0,0,1-.5-.087L1847.538,166.9l1.017-2.794,49.641,18.071.749-2.065-38.9-19.263-5.739,1.629a1.464,1.464,0,0,1-.923-.038l-5-1.865,1.036-2.788,4.547,1.7,5.827-1.653a1.5,1.5,0,0,1,1.066.1l40.6,20.111a1.5,1.5,0,0,1,.736,1.84l-1.716,4.7a1.48,1.48,0,0,1-1.4.98" fill="#fff"/><path d="M709.929,293.748H699.92a1.488,1.488,0,0,1-1.487-1.484v-18.72a1.491,1.491,0,0,1,.474-1.086l5.006-4.665a1.473,1.473,0,0,1,2.024,0l5.005,4.665a1.477,1.477,0,0,1,.471,1.086v18.72a1.483,1.483,0,0,1-1.484,1.484m-8.521-2.969h7.036V274.193l-3.518-3.288-3.518,3.288Z" fill="#fff"/><path d="M719.941,293.748H709.93a1.488,1.488,0,0,1-1.485-1.484v-18.72a1.48,1.48,0,0,1,.474-1.086l5-4.665a1.477,1.477,0,0,1,2.027,0l5,4.665a1.483,1.483,0,0,1,.474,1.086v18.72a1.488,1.488,0,0,1-1.485,1.484m-8.527-2.969h7.043V274.193l-3.522-3.288-3.521,3.288Z" fill="#fff"/><path d="M729.95,293.748H719.941a1.483,1.483,0,0,1-1.484-1.484v-18.72a1.48,1.48,0,0,1,.47-1.086l5.006-4.665a1.478,1.478,0,0,1,2.028,0l5,4.665a1.5,1.5,0,0,1,.474,1.086v18.72a1.489,1.489,0,0,1-1.488,1.484m-8.524-2.969h7.039V274.193l-3.521-3.288-3.518,3.288Z" fill="#fff"/><path d="M739.958,293.748H729.949a1.485,1.485,0,0,1-1.484-1.484v-18.72a1.488,1.488,0,0,1,.471-1.086l5.005-4.665a1.474,1.474,0,0,1,2.025,0l5.009,4.665a1.489,1.489,0,0,1,.468,1.086v18.72a1.484,1.484,0,0,1-1.485,1.484m-8.521-2.969h7.036V274.193l-3.518-3.288-3.518,3.288Z" fill="#fff"/><path d="M749.97,293.748H739.958a1.487,1.487,0,0,1-1.484-1.484v-18.72a1.48,1.48,0,0,1,.474-1.086l5-4.665a1.477,1.477,0,0,1,2.027,0l5,4.665a1.472,1.472,0,0,1,.474,1.086v18.72a1.486,1.486,0,0,1-1.485,1.484m-8.527-2.969h7.042V274.193l-3.521-3.288-3.521,3.288Z" fill="#fff"/><path d="M528.332,285.739H466.85a7.58,7.58,0,0,1-7.573-7.573v-9.213a10.819,10.819,0,0,1,1.606-5.677l5.528-8.983,5.73-12.169a11.408,11.408,0,0,1,10.283-6.519h30.333a11.407,11.407,0,0,1,10.283,6.519l5.73,12.169,5.528,8.983a10.82,10.82,0,0,1,1.606,5.677v9.213a7.58,7.58,0,0,1-7.572,7.573m-45.908-47.165a8.429,8.429,0,0,0-7.6,4.816l-5.764,12.245a1.154,1.154,0,0,1-.08.143l-5.57,9.058a7.821,7.821,0,0,0-1.165,4.117v9.213a4.606,4.606,0,0,0,4.6,4.6h61.482a4.608,4.608,0,0,0,4.6-4.6v-9.213a7.83,7.83,0,0,0-1.165-4.117l-5.572-9.058a1.027,1.027,0,0,1-.078-.143l-5.766-12.245a8.43,8.43,0,0,0-7.6-4.816Z" fill="#fff"/><path d="M472.975,293.748H462.806a3.536,3.536,0,0,1-3.53-3.53V278.166a1.486,1.486,0,1,1,2.973,0v12.052a.562.562,0,0,0,.557.561h10.169a.563.563,0,0,0,.558-.561v-5.964a1.486,1.486,0,0,1,2.971,0v5.964a3.534,3.534,0,0,1-3.529,3.53" fill="#fff"/><path d="M532.376,293.748H522.208a3.534,3.534,0,0,1-3.529-3.53v-5.964a1.486,1.486,0,0,1,2.971,0v5.964a.562.562,0,0,0,.558.561h10.168a.562.562,0,0,0,.558-.561V278.166a1.486,1.486,0,0,1,2.971,0v12.052a3.534,3.534,0,0,1-3.529,3.53" fill="#fff"/><path d="M467.72,256.49a1.514,1.514,0,0,1-.4-.056l-6.3-1.766a1.487,1.487,0,0,1,.8-2.863l6.3,1.766a1.487,1.487,0,0,1-.4,2.919" fill="#fff"/><path d="M527.462,256.49a1.487,1.487,0,0,1-.4-2.919l6.3-1.766a1.487,1.487,0,0,1,.8,2.863l-6.3,1.766a1.5,1.5,0,0,1-.4.056" fill="#fff"/><path d="M507.995,271.3H487.187a14.029,14.029,0,0,1-8.66-3.007l-6.161-4.859a1.486,1.486,0,1,1,1.84-2.333l6.161,4.859a11.035,11.035,0,0,0,6.82,2.364H508a11.04,11.04,0,0,0,6.821-2.364l6.16-4.859a1.486,1.486,0,1,1,1.84,2.333l-6.16,4.859A14.034,14.034,0,0,1,508,271.3" fill="#fff"/><path d="M511.264,278.3H483.92a1.484,1.484,0,1,1,0-2.969h27.344a1.484,1.484,0,1,1,0,2.969" fill="#fff"/><rect width="59.743" height="2.975" transform="translate(467.72 253.515)" fill="#fff"/><path d="M472.682,272.508h-5.853a1.484,1.484,0,0,1,0-2.969h5.853a1.484,1.484,0,1,1,0,2.969" fill="#fff"/><path d="M528.352,272.508H522.5a1.484,1.484,0,0,1,0-2.969h5.853a1.484,1.484,0,0,1,0,2.969" fill="#fff"/><path d="M1902,275.877a1.487,1.487,0,0,1-.636-2.832c.311-.143,7.8-3.624,23.41-7.941,3.032-.842,6.213-1.665,9.451-2.451,8.633-2.1,17.921-4,27.608-5.639,5.858-.992,11.971-1.9,18.153-2.714,9.2-1.21,18.832-2.221,28.619-3.006,4.61-.369,9.326-.7,14.023-.974,8.49-.492,17.273-.842,26.106-1.035,5.564-.125,11.271-.187,16.954-.187a1.488,1.488,0,1,1,0,2.975c-5.664,0-11.346.063-16.892.181-8.8.194-17.541.537-25.993,1.036-4.679.274-9.376.6-13.961.967-9.737.779-19.318,1.79-28.469,2.987-6.151.8-12.22,1.716-18.047,2.7-9.612,1.629-18.832,3.506-27.4,5.59-3.213.779-6.363,1.6-9.363,2.432-15.333,4.242-22.869,7.735-22.937,7.767a1.439,1.439,0,0,1-.63.143" fill="#fff"/><path d="M1623.367,247.357a1.491,1.491,0,0,1-1.435-1.1l-5.065-18.907a1.485,1.485,0,1,1,2.87-.767l5.065,18.9a1.486,1.486,0,0,1-1.048,1.821,1.623,1.623,0,0,1-.387.05" fill="#fff"/><path d="M1609.532,261.2a1.508,1.508,0,0,1-1.054-.437,1.485,1.485,0,0,1,0-2.1l13.842-13.842a1.485,1.485,0,1,1,2.1,2.1l-13.839,13.842a1.5,1.5,0,0,1-1.048.437" fill="#fff"/><path d="M1642.274,252.423a1.677,1.677,0,0,1-.387-.05l-18.9-5.065a1.485,1.485,0,1,1,.771-2.869l18.9,5.065a1.485,1.485,0,0,1-.384,2.919" fill="#fff"/><path d="M1623.367,273.02a1.49,1.49,0,0,1-1.485-1.491V245.873a1.484,1.484,0,0,1,2.969,0v25.656a1.485,1.485,0,0,1-1.484,1.491" fill="#fff"/><path d="M1767.943,245.112a1.479,1.479,0,0,1-1.435-1.1l-5.065-18.9a1.486,1.486,0,1,1,2.869-.774l5.066,18.908a1.49,1.49,0,0,1-1.055,1.821,1.6,1.6,0,0,1-.38.05" fill="#fff"/><path d="M1754.1,258.947a1.481,1.481,0,0,1-1.048-2.532l13.836-13.842a1.486,1.486,0,0,1,2.1,2.1l-13.842,13.842a1.479,1.479,0,0,1-1.048.43" fill="#fff"/><path d="M1786.844,250.177a1.6,1.6,0,0,1-.38-.05l-18.907-5.065a1.485,1.485,0,1,1,.767-2.869l18.907,5.065a1.485,1.485,0,0,1-.387,2.919" fill="#fff"/><path d="M1767.943,267.874a1.481,1.481,0,0,1-1.485-1.485V243.627a1.484,1.484,0,0,1,2.969,0v22.762a1.484,1.484,0,0,1-1.484,1.485" fill="#fff"/><path d="M1949.884,282.246a1.45,1.45,0,0,1-.232-.019c-15.288-2.4-31.376-4.541-47.819-6.362-3.107-.343-6.276-.68-9.414-1.005l-3.691-.374c-8.515-.848-17.268-1.628-26.007-2.32-5.2-.406-10.523-.8-15.813-1.154a1.485,1.485,0,0,1,.2-2.964c5.3.356,10.636.749,15.845,1.161,8.763.692,17.533,1.472,26.068,2.32q1.851.188,3.7.381c3.145.318,6.319.661,9.438,1,16.48,1.828,32.613,3.974,47.952,6.375a1.488,1.488,0,0,1-.231,2.957" fill="#fff"/><path d="M1837.264,270.394h-.094c-22.624-1.36-45.923-2.208-69.252-2.52-21.384-.281-42.961-.112-64.126.5a1.469,1.469,0,0,1-1.528-1.441,1.489,1.489,0,0,1,1.441-1.528c21.209-.612,42.829-.78,64.256-.5,23.374.311,46.716,1.16,69.391,2.52a1.486,1.486,0,0,1-.088,2.969" fill="#fff"/><path d="M1559.229,280.786a1.485,1.485,0,0,1-.231-2.951c19.531-3.106,41.145-5.726,64.238-7.784,22.119-1.972,45.455-3.413,69.365-4.286h.056a1.485,1.485,0,0,1,.05,2.97c-23.853.873-47.139,2.307-69.209,4.279-23.024,2.046-44.57,4.659-64.032,7.753a1.456,1.456,0,0,1-.237.019" fill="#fff"/><path d="M1521.915,287.9a1.485,1.485,0,0,1-.332-2.932c8.409-1.927,17.6-3.761,27.323-5.458a1.485,1.485,0,0,1,.511,2.926c-9.672,1.69-18.813,3.512-27.172,5.427a1.481,1.481,0,0,1-.33.037" transform="translate(12 -2)" fill="#fff"/><path d="M424.993,293.748H198.29a1.486,1.486,0,0,1-1.485-1.484V282.127a1.486,1.486,0,0,1,1.485-1.484h226.7a1.487,1.487,0,0,1,1.487,1.484v10.137a1.487,1.487,0,0,1-1.487,1.484m-225.217-2.969H423.509v-7.167H199.776Z" fill="#fff"/><path d="M413.039,283.612H210.245a1.482,1.482,0,0,1-1.485-1.485v-64.78a1.486,1.486,0,0,1,1.485-1.485H413.039a1.488,1.488,0,0,1,1.486,1.485v64.78a1.483,1.483,0,0,1-1.486,1.485m-201.308-2.969H411.554V218.838H211.731Z" fill="#fff"/><path d="M223.611,283.612H210.245a1.482,1.482,0,0,1-1.485-1.485v-64.78a1.486,1.486,0,0,1,1.485-1.485h13.366a1.487,1.487,0,0,1,1.485,1.485v64.78a1.483,1.483,0,0,1-1.485,1.485m-11.88-2.969h10.394V218.838H211.731Z" fill="#fff"/><rect width="13.366" height="2.969" transform="translate(210.245 272.546)" fill="#fff"/><rect width="13.366" height="2.969" transform="translate(210.245 264.449)" fill="#fff"/><rect width="13.366" height="2.969" transform="translate(210.245 256.352)" fill="#fff"/><rect width="13.366" height="2.969" transform="translate(210.245 248.256)" fill="#fff"/><rect width="13.366" height="2.969" transform="translate(210.245 240.159)" fill="#fff"/><rect width="13.366" height="2.976" transform="translate(210.245 232.055)" fill="#fff"/><rect width="13.366" height="2.975" transform="translate(210.245 223.959)" fill="#fff"/><path d="M413.039,283.612H399.674a1.483,1.483,0,0,1-1.485-1.485v-64.78a1.487,1.487,0,0,1,1.485-1.485h13.365a1.488,1.488,0,0,1,1.486,1.485v64.78a1.483,1.483,0,0,1-1.486,1.485m-11.881-2.969h10.4V218.838h-10.4Z" fill="#fff"/><rect width="13.365" height="2.969" transform="translate(399.674 272.546)" fill="#fff"/><rect width="13.365" height="2.969" transform="translate(399.674 264.449)" fill="#fff"/><rect width="13.365" height="2.969" transform="translate(399.674 256.352)" fill="#fff"/><rect width="13.365" height="2.969" transform="translate(399.674 248.256)" fill="#fff"/><rect width="13.365" height="2.969" transform="translate(399.674 240.159)" fill="#fff"/><rect width="13.365" height="2.976" transform="translate(399.674 232.055)" fill="#fff"/><rect width="13.365" height="2.975" transform="translate(399.674 223.959)" fill="#fff"/><path d="M291.1,275.8H236.575a1.486,1.486,0,0,1-1.485-1.485V225.163a1.488,1.488,0,0,1,1.485-1.491H291.1a1.489,1.489,0,0,1,1.486,1.491v49.154A1.487,1.487,0,0,1,291.1,275.8m-53.035-2.969h51.55V226.648h-51.55Z" fill="#fff"/><path d="M284.306,269.009H243.367a1.483,1.483,0,0,1-1.487-1.485V231.95a1.488,1.488,0,0,1,1.487-1.485h40.939a1.486,1.486,0,0,1,1.484,1.485v35.574a1.482,1.482,0,0,1-1.484,1.485m-39.455-2.969h37.968v-32.6H244.851Z" fill="#fff"/><rect width="2.971" height="35.575" transform="translate(262.35 231.949)" fill="#fff"/><path d="M386.708,275.8h-54.52a1.486,1.486,0,0,1-1.485-1.485V225.163a1.487,1.487,0,0,1,1.485-1.491h54.52a1.489,1.489,0,0,1,1.487,1.491v49.154a1.488,1.488,0,0,1-1.487,1.485m-53.034-2.969h51.55V226.648h-51.55Z" fill="#fff"/><path d="M379.919,269.009h-40.94a1.483,1.483,0,0,1-1.486-1.485V231.95a1.488,1.488,0,0,1,1.486-1.485h40.94a1.486,1.486,0,0,1,1.484,1.485v35.574a1.482,1.482,0,0,1-1.484,1.485m-39.455-2.969h37.97v-32.6h-37.97Z" fill="#fff"/><rect width="2.969" height="35.575" transform="translate(357.964 231.949)" fill="#fff"/><path d="M417.949,218.837H205.336a1.488,1.488,0,0,1-1.487-1.49v-7.6a1.487,1.487,0,0,1,1.487-1.484H417.949a1.487,1.487,0,0,1,1.487,1.484v7.6a1.488,1.488,0,0,1-1.487,1.49M206.82,215.862H416.464v-4.628H206.82Z" fill="#fff"/><path d="M432.083,211.234H191.2a1.482,1.482,0,0,1-1.485-1.485V139.142a1.486,1.486,0,0,1,1.485-1.484H432.083a1.487,1.487,0,0,1,1.486,1.484v70.607a1.483,1.483,0,0,1-1.486,1.485m-239.4-2.969H430.6V140.628H192.687Z" fill="#fff"/><path d="M268.3,203.9H199.043a1.488,1.488,0,0,1-1.486-1.485V146.484A1.483,1.483,0,0,1,199.043,145H268.3a1.482,1.482,0,0,1,1.485,1.484v55.929A1.487,1.487,0,0,1,268.3,203.9m-67.775-2.975h66.29V147.97h-66.29Z" fill="#fff"/><path d="M261.514,197.1H205.835a1.486,1.486,0,0,1-1.486-1.485V153.278a1.487,1.487,0,0,1,1.486-1.491h55.679A1.488,1.488,0,0,1,263,153.278V195.62a1.486,1.486,0,0,1-1.485,1.485m-54.2-2.969h52.709V154.762H207.319Z" fill="#fff"/><rect width="55.679" height="2.975" transform="translate(205.835 162.373)" fill="#fff"/><rect width="55.679" height="2.969" transform="translate(205.835 172.965)" fill="#fff"/><rect width="55.679" height="2.969" transform="translate(205.835 183.55)" fill="#fff"/><rect width="2.971" height="42.343" transform="translate(218.268 153.277)" fill="#fff"/><rect width="2.971" height="42.343" transform="translate(232.188 153.277)" fill="#fff"/><rect width="2.971" height="42.343" transform="translate(246.108 153.277)" fill="#fff"/><path d="M424.242,203.9H354.98a1.486,1.486,0,0,1-1.485-1.485V146.484A1.482,1.482,0,0,1,354.98,145h69.262a1.482,1.482,0,0,1,1.484,1.484v55.929a1.486,1.486,0,0,1-1.484,1.485m-67.776-2.975h66.29V147.97h-66.29Z" fill="#fff"/><path d="M417.45,197.1H361.771a1.487,1.487,0,0,1-1.486-1.485V153.278a1.489,1.489,0,0,1,1.486-1.491H417.45a1.487,1.487,0,0,1,1.486,1.491V195.62a1.486,1.486,0,0,1-1.486,1.485m-54.193-2.969h52.708V154.762H363.257Z" fill="#fff"/><rect width="55.679" height="2.975" transform="translate(361.771 162.373)" fill="#fff"/><rect width="55.679" height="2.969" transform="translate(361.771 172.965)" fill="#fff"/><rect width="55.679" height="2.969" transform="translate(361.771 183.55)" fill="#fff"/><rect width="2.97" height="42.343" transform="translate(402.046 153.277)" fill="#fff"/><rect width="2.973" height="42.343" transform="translate(388.124 153.277)" fill="#fff"/><rect width="2.973" height="42.343" transform="translate(374.204 153.277)" fill="#fff"/><path d="M241.69,140.627H225.657a1.483,1.483,0,0,1-1.486-1.485V126.554a1.483,1.483,0,0,1,1.486-1.484H241.69a1.483,1.483,0,0,1,1.486,1.484v12.588a1.483,1.483,0,0,1-1.486,1.485m-14.548-2.969h13.064v-9.619H227.142Z" fill="#fff"/><path d="M241.69,122.805H225.658a1.488,1.488,0,0,1-1.487-1.485v-2.975a4.036,4.036,0,0,1,4.033-4.029h10.94a4.036,4.036,0,0,1,4.032,4.029v2.975a1.487,1.487,0,0,1-1.486,1.485m-14.548-2.969h13.064v-1.491a1.066,1.066,0,0,0-1.062-1.06H228.2a1.064,1.064,0,0,0-1.062,1.06Z" fill="#fff"/><rect width="2.971" height="5.234" transform="translate(226.058 121.32)" fill="#fff"/><rect width="2.971" height="5.234" transform="translate(238.318 121.32)" fill="#fff"/><path d="M397.628,140.627H381.593a1.482,1.482,0,0,1-1.484-1.485V126.554a1.482,1.482,0,0,1,1.484-1.484h16.035a1.482,1.482,0,0,1,1.484,1.484v12.588a1.482,1.482,0,0,1-1.484,1.485m-14.548-2.969h13.062v-9.619H383.08Z" fill="#fff"/><path d="M397.627,122.805H381.593a1.486,1.486,0,0,1-1.485-1.485v-2.975a4.036,4.036,0,0,1,4.033-4.029h10.94a4.035,4.035,0,0,1,4.031,4.029v2.975a1.486,1.486,0,0,1-1.485,1.485m-14.548-2.969h13.062v-1.491a1.064,1.064,0,0,0-1.06-1.06h-10.94a1.065,1.065,0,0,0-1.062,1.06Z" fill="#fff"/><rect width="2.97" height="5.234" transform="translate(381.995 121.32)" fill="#fff"/><rect width="2.971" height="5.234" transform="translate(394.256 121.32)" fill="#fff"/><rect width="2.97" height="69.122" transform="translate(282.093 140.627)" fill="#fff"/><rect width="2.969" height="69.122" transform="translate(338.222 140.627)" fill="#fff"/><path d="M326.538,211.234H296.746a1.482,1.482,0,0,1-1.485-1.485V176.476a1.486,1.486,0,0,1,1.485-1.484h29.792a1.487,1.487,0,0,1,1.486,1.484v33.273a1.483,1.483,0,0,1-1.486,1.485m-28.306-2.969h26.821v-30.3H298.232Z" fill="#fff"/><path d="M319.748,211.234H303.537a1.483,1.483,0,0,1-1.486-1.485v-26.48a1.487,1.487,0,0,1,1.486-1.484h16.211a1.486,1.486,0,0,1,1.485,1.484v26.48a1.483,1.483,0,0,1-1.485,1.485m-14.725-2.969h13.238v-23.51H305.023Z" fill="#fff"/><path d="M579.8,293.748a1.486,1.486,0,0,1-1.484-1.485V220.016a1.484,1.484,0,1,1,2.969,0v72.247a1.487,1.487,0,0,1-1.485,1.485" fill="#fff"/><path d="M579.8,262.328c-17.405,0-31.567-15.444-31.567-34.426S562.4,193.475,579.8,193.475s31.565,15.445,31.565,34.427-14.16,34.426-31.565,34.426m0-65.884c-15.768,0-28.594,14.11-28.594,31.458s12.826,31.451,28.594,31.451,28.6-14.11,28.6-31.453-12.83-31.456-28.6-31.456" fill="#fff"/><path d="M579.8,249.166a1.49,1.49,0,0,1-1.051-.43l-7.849-7.854a1.486,1.486,0,1,1,2.1-2.1l7.85,7.854a1.481,1.481,0,0,1-1.051,2.532" fill="#fff"/><path d="M579.8,240.34a1.488,1.488,0,0,1-1.051-2.539l11.169-11.166a1.485,1.485,0,0,1,2.1,2.1L580.853,239.9a1.5,1.5,0,0,1-1.051.437" fill="#fff"/><path d="M562.964,232.3a5.729,5.729,0,1,1,5.73-5.733,5.729,5.729,0,0,1-5.73,5.733m0-8.49a2.76,2.76,0,1,0,2.759,2.757,2.76,2.76,0,0,0-2.759-2.757" fill="#fff"/><path d="M589.63,216.387a5.73,5.73,0,1,1,5.731-5.733,5.73,5.73,0,0,1-5.731,5.733m0-8.49a2.757,2.757,0,1,0,2.76,2.757,2.757,2.757,0,0,0-2.76-2.757" fill="#fff"/><path d="M592.56,249.566a5.732,5.732,0,1,1,5.73-5.732,5.732,5.732,0,0,1-5.73,5.732m0-8.49a2.757,2.757,0,1,0,2.759,2.758,2.757,2.757,0,0,0-2.759-2.758" fill="#fff"/><path d="M598.12,293.749a5.729,5.729,0,1,1,5.729-5.733,5.729,5.729,0,0,1-5.729,5.733m0-8.49a2.76,2.76,0,1,0,2.758,2.757,2.76,2.76,0,0,0-2.758-2.757" fill="#fff"/><path d="M568.933,293.749a5.729,5.729,0,1,1,5.729-5.733,5.729,5.729,0,0,1-5.729,5.733m0-8.49a2.76,2.76,0,1,0,2.757,2.757,2.76,2.76,0,0,0-2.757-2.757" fill="#fff"/><path d="M679.9,293.748a1.488,1.488,0,0,1-1.486-1.485V220.016a1.486,1.486,0,0,1,2.971,0v72.247a1.487,1.487,0,0,1-1.485,1.485" fill="#fff"/><path d="M679.9,262.328c-17.407,0-31.567-15.444-31.567-34.426s14.16-34.427,31.567-34.427,31.565,15.445,31.565,34.427S697.3,262.328,679.9,262.328m0-65.884c-15.768,0-28.6,14.11-28.6,31.458s12.828,31.451,28.6,31.451,28.593-14.11,28.593-31.451S695.67,196.444,679.9,196.444" fill="#fff"/><path d="M679.9,249.166a1.49,1.49,0,0,1-1.051-.43L671,240.882a1.486,1.486,0,1,1,2.1-2.1l7.848,7.854a1.481,1.481,0,0,1-1.049,2.532" fill="#fff"/><path d="M679.9,240.34a1.488,1.488,0,0,1-1.051-2.539l11.169-11.166a1.485,1.485,0,0,1,2.1,2.1L680.951,239.9a1.493,1.493,0,0,1-1.049.437" fill="#fff"/><path d="M663.062,232.3a5.73,5.73,0,1,1,5.731-5.733,5.73,5.73,0,0,1-5.731,5.733m0-8.49a2.76,2.76,0,1,0,2.76,2.757,2.76,2.76,0,0,0-2.76-2.757" fill="#fff"/><path d="M667.307,293.749a5.729,5.729,0,1,1,5.73-5.733,5.729,5.729,0,0,1-5.73,5.733m0-8.49a2.76,2.76,0,1,0,2.759,2.757,2.76,2.76,0,0,0-2.759-2.757" fill="#fff"/><path d="M689.73,216.387a5.73,5.73,0,1,1,5.728-5.733,5.73,5.73,0,0,1-5.728,5.733m0-8.49a2.757,2.757,0,1,0,2.758,2.757,2.757,2.757,0,0,0-2.758-2.757" fill="#fff"/><path d="M692.659,249.566a5.732,5.732,0,1,1,5.73-5.732,5.732,5.732,0,0,1-5.73,5.732m0-8.49a2.757,2.757,0,1,0,2.76,2.757,2.757,2.757,0,0,0-2.76-2.757" fill="#fff"/><path d="M629.852,293.748a1.488,1.488,0,0,1-1.486-1.485V252.572a1.485,1.485,0,1,1,2.971,0v39.691a1.487,1.487,0,0,1-1.485,1.485" fill="#fff"/><path d="M629.852,274.816c-9.253,0-16.78-8.184-16.78-18.233s7.527-18.233,16.78-18.233,16.778,8.178,16.778,18.233-7.527,18.233-16.778,18.233m0-33.5c-7.613,0-13.807,6.849-13.807,15.264s6.194,15.258,13.807,15.258S643.66,265,643.66,256.583s-6.2-15.264-13.808-15.264" fill="#fff"/><path d="M629.852,268.123a1.468,1.468,0,0,1-1.051-.437L624.81,263.7a1.486,1.486,0,0,1,2.1-2.1l3.992,3.992a1.485,1.485,0,0,1-1.051,2.533" fill="#fff"/><path d="M629.852,263.632A1.481,1.481,0,0,1,628.8,261.1l5.679-5.677a1.485,1.485,0,0,1,2.1,2.1L630.9,263.2a1.488,1.488,0,0,1-1.051.43" fill="#fff"/><path d="M729.95,275.029a1.482,1.482,0,0,1-1.484-1.484V240.409a1.486,1.486,0,1,1,2.972,0v33.136a1.485,1.485,0,0,1-1.488,1.484" fill="#fff"/><path d="M729.95,262.652c-9.254,0-16.777-8.184-16.777-18.233s7.523-18.233,16.777-18.233,16.777,8.178,16.777,18.233-7.523,18.233-16.777,18.233m0-33.5c-7.613,0-13.807,6.843-13.807,15.264s6.194,15.258,13.807,15.258,13.808-6.843,13.808-15.258-6.2-15.264-13.808-15.264" fill="#fff"/><path d="M729.95,255.959a1.478,1.478,0,0,1-1.051-.437l-3.992-3.986a1.486,1.486,0,0,1,2.1-2.1l3.993,3.99a1.485,1.485,0,0,1-1.051,2.533" fill="#fff"/><path d="M729.95,251.468a1.481,1.481,0,0,1-1.051-2.532l5.679-5.677a1.485,1.485,0,0,1,2.1,2.1L731,251.038a1.488,1.488,0,0,1-1.051.43" fill="#fff"/><path d="M779.307,276.388H759.639a1.484,1.484,0,0,1-1.484-1.485v-7.772a4.65,4.65,0,0,1,4.647-4.641h16.505a1.484,1.484,0,0,1,1.485,1.485V274.9a1.484,1.484,0,0,1-1.485,1.485m-18.18-2.969h16.7V265.46H762.8a1.674,1.674,0,0,0-1.675,1.671Z" fill="#fff"/><path d="M779.307,265.46a1.484,1.484,0,0,1-1.484-1.485v-3.081a1.484,1.484,0,0,1,2.969,0v3.081a1.489,1.489,0,0,1-1.485,1.485" fill="#fff"/><path d="M759.639,293.748a1.488,1.488,0,0,1-1.484-1.485V274.9a1.486,1.486,0,1,1,2.972,0v17.36a1.488,1.488,0,0,1-1.488,1.485" fill="#fff"/><rect width="13.37" height="2.973" transform="matrix(0.736, -0.677, 0.677, 0.736, 758.632, 282.868)" fill="#fff"/></g></g></svg>